<?xml version="1.0" encoding="UTF-8"?><svg xmlns="http://www.w3.org/2000/svg" version="1.1" width="1140" height="429" viewBox="57 295 1140 429">
<path d="M0 0 C18.81 0 37.62 0 57 0 C61.455 5.445 61.455 5.445 66 11 C67.82642936 13.17248966 69.65852668 15.34024734 71.5 17.5 C75.62217335 22.3485983 79.66993604 27.25163571 83.6875 32.1875 C86.26146392 35.31799666 88.87569086 38.41172461 91.5 41.5 C95.62101634 46.34959381 99.66991354 51.25160806 103.6875 56.1875 C106.26146392 59.31799666 108.87569086 62.41172461 111.5 65.5 C115.62101634 70.34959381 119.66991354 75.25160806 123.6875 80.1875 C126.26146392 83.31799666 128.87569086 86.41172461 131.5 89.5 C135.62101634 94.34959381 139.66991354 99.25160806 143.6875 104.1875 C146.26146418 107.31799698 148.87570424 110.41171278 151.5 113.5 C155.69999512 118.44293605 159.83780379 123.43167121 163.9296875 128.46484375 C166.26648759 131.3263216 168.6348942 134.16187304 171 137 C171.33 91.79 171.66 46.58 172 0 C190.48 0 208.96 0 228 0 C228 80.85 228 161.7 228 245 C209.19 245 190.38 245 171 245 C168.03 241.37 165.06 237.74 162 234 C160.17357064 231.82751034 158.34147332 229.65975266 156.5 227.5 C152.37782665 222.6514017 148.33006396 217.74836429 144.3125 212.8125 C141.73853608 209.68200334 139.12430914 206.58827539 136.5 203.5 C132.37898366 198.65040619 128.33008646 193.74839194 124.3125 188.8125 C121.73853608 185.68200334 119.12430914 182.58827539 116.5 179.5 C112.37898366 174.65040619 108.33008646 169.74839194 104.3125 164.8125 C101.73853608 161.68200334 99.12430914 158.58827539 96.5 155.5 C92.37898366 150.65040619 88.33008646 145.74839194 84.3125 140.8125 C81.73853582 137.68200302 79.12429576 134.58828722 76.5 131.5 C72.30000488 126.55706395 68.16219621 121.56832879 64.0703125 116.53515625 C61.73351241 113.6736784 59.3651058 110.83812696 57 108 C56.67 153.21 56.34 198.42 56 245 C37.52 245 19.04 245 0 245 C0 164.15 0 83.3 0 0 Z " fill="#58585A" transform="translate(706,365)"/>
<path d="M0 0 C26.338125 -0.04125 52.67625 -0.0825 79.8125 -0.125 C92.27028198 -0.15231201 92.27028198 -0.15231201 104.97973633 -0.18017578 C115.14978027 -0.18920898 115.14978027 -0.18920898 119.91630554 -0.19088745 C123.23334956 -0.19274485 126.55032906 -0.20021631 129.86735535 -0.21115112 C134.10829588 -0.22494488 138.34914358 -0.22896838 142.59010446 -0.22614455 C144.14036339 -0.22673439 145.69062581 -0.23065531 147.24086535 -0.23843026 C171.01012132 -0.35203082 189.86641753 6.15245396 207 23 C207.69996094 23.68707031 208.39992188 24.37414062 209.12109375 25.08203125 C218.29072212 34.71639713 223.87302755 46.15644651 227 59 C227.19078125 59.74636719 227.3815625 60.49273437 227.578125 61.26171875 C230.69399943 81.48605188 226.70315879 101.858806 215.12109375 118.73828125 C213.17603366 121.26489466 211.14270501 123.63912866 209 126 C208.24976563 126.84304688 207.49953125 127.68609375 206.7265625 128.5546875 C192.39539379 143.81343995 173.11570268 150.97568653 152.5 151.625 C151.48679687 151.66367187 150.47359375 151.70234375 149.4296875 151.7421875 C146.95329716 151.83563619 144.47689849 151.92139873 142 152 C142.5873291 152.62491333 142.5873291 152.62491333 143.18652344 153.26245117 C149.81600061 160.3186066 156.44418835 167.37524886 163 174.5 C167.47201059 179.35985808 171.97848022 184.18617995 176.5 189 C181.02152063 193.81382095 185.52790829 198.64021595 190 203.5 C194.43269151 208.31592995 198.89583354 213.1022681 203.375 217.875 C203.99922852 218.54047852 204.62345703 219.20595703 205.26660156 219.89160156 C207.83747905 222.63184206 210.4088561 225.37160035 212.98339844 228.10839844 C214.90734983 230.15396256 216.828845 232.20180983 218.75 234.25 C219.33442871 234.86987793 219.91885742 235.48975586 220.52099609 236.12841797 C221.33818115 237.00071045 221.33818115 237.00071045 222.171875 237.890625 C222.6472168 238.39625977 223.12255859 238.90189453 223.61230469 239.42285156 C225.18348438 241.20853432 226.58160367 243.09167347 228 245 C218.02065135 245.25584828 208.04209326 245.4508056 198.06012249 245.56993389 C193.423906 245.62713773 188.78994667 245.70459921 184.1550293 245.82983398 C179.67441272 245.95012982 175.19595394 246.01528085 170.71384621 246.04364967 C169.01165624 246.06384052 167.30957312 246.10327277 165.60831261 246.16303062 C150.90616674 246.65850192 150.90616674 246.65850192 145.01974964 241.19414234 C142.85597037 238.91048928 140.91463106 236.4942851 139 234 C137.76617798 232.59417624 136.52592635 231.19390631 135.2734375 229.8046875 C134.73170898 229.17143555 134.18998047 228.53818359 133.63183594 227.88574219 C130.73337313 224.53629175 127.66859748 221.34208924 124.625 218.125 C119.80607718 213.00956429 115.04287635 207.85689534 110.36328125 202.61328125 C107.32078832 199.24893783 104.22453103 195.93674819 101.125 192.625 C95.03930368 186.12263123 89.007956 179.57424346 83 173 C82.06410739 171.98018848 81.12790516 170.96066102 80.19140625 169.94140625 C74.42258706 163.66164019 68.69052088 157.35090231 63 151 C64.6724203 145.55699169 66.93103612 140.44490406 69.24609375 135.25390625 C69.65787369 134.32456772 70.06965363 133.39522919 70.49391174 132.43772888 C71.80586758 129.47816954 73.12156151 126.52029035 74.4375 123.5625 C75.7490627 120.60792841 77.05985716 117.65301726 78.37037659 114.69798279 C79.18432177 112.86337634 79.99901055 111.02909957 80.81455994 109.19520569 C82.91090668 104.47761344 84.97905672 99.75040361 87 95 C87.85920044 94.99635437 88.71840088 94.99270874 89.6036377 94.98895264 C97.72468593 94.95099128 105.84533589 94.89404646 113.9661026 94.81609726 C118.14050301 94.77668922 122.31469459 94.74446829 126.48925781 94.72900391 C130.52252938 94.71379296 134.55522657 94.67926989 138.58824158 94.63169098 C140.12225841 94.61692266 141.65635726 94.60896161 143.19044495 94.60811615 C154.68654688 94.62620985 154.68654688 94.62620985 165 90 C169.18292383 85.70699923 171.06867042 81.6405048 171.375 75.6875 C171.22003882 69.48905261 168.97250404 64.92192701 164.5625 60.625 C158.72724758 56.92459602 153.91356919 56.69695453 147.16088867 56.68115234 C145.65828853 56.66592246 145.65828853 56.66592246 144.12533283 56.6503849 C140.88954837 56.61980079 137.65385168 56.60260721 134.41796875 56.5859375 C132.41751348 56.56899953 130.41706544 56.55118251 128.41662598 56.5324707 C121.00700046 56.46932571 113.59723785 56.42319305 106.1875 56.375 C81.3446875 56.189375 81.3446875 56.189375 56 56 C56 118.37 56 180.74 56 245 C37.52 245 19.04 245 0 245 C0 164.15 0 83.3 0 0 Z " fill="#58585A" transform="translate(948,365)"/>
<path d="M0 0 C1.60736585 0.00056507 3.21473222 0.00024568 4.82209778 -0.00088501 C9.15819013 -0.00145577 13.49417046 0.01025346 17.83023691 0.02426291 C22.37191599 0.03681666 26.913598 0.03794441 31.45529175 0.04031372 C40.04335539 0.04651489 48.63136775 0.06290717 57.21940887 0.0830127 C67.00179326 0.10541425 76.78418019 0.11637581 86.56658387 0.12640357 C106.678376 0.14727468 126.79009788 0.18393378 146.90185547 0.22705078 C146.90185547 18.70705078 146.90185547 37.18705078 146.90185547 56.22705078 C142.15746094 56.23115967 137.41306641 56.23526855 132.52490234 56.23950195 C116.85465596 56.25669433 101.18457237 56.30093575 85.51442719 56.35914135 C76.01301006 56.39377256 66.51173773 56.41914442 57.01025391 56.42260742 C48.72730684 56.42564992 40.44461778 56.44617872 32.16177034 56.48757535 C27.77729268 56.50888122 23.39318159 56.52151844 19.00865173 56.51320457 C14.87819027 56.50564904 10.74847062 56.52154748 6.61814499 56.55511093 C5.10572368 56.56332622 3.59322835 56.56311532 2.08081436 56.55364799 C-6.02751212 56.50793397 -12.78879689 56.53652571 -19.09814453 62.22705078 C-22.81490067 65.96703665 -24.41087618 69.98191547 -24.66064453 75.22705078 C-24.30950628 81.56704691 -22.18978318 86.23999406 -17.59814453 90.60205078 C-16.77314453 91.13830078 -15.94814453 91.67455078 -15.09814453 92.22705078 C-14.56463882 92.58464478 -14.03113312 92.94223877 -13.48146057 93.31066895 C-9.87782985 94.69626015 -6.27329262 94.51872441 -2.46508789 94.51416016 C-1.59459808 94.52099319 -0.72410828 94.52782623 0.17276001 94.53486633 C2.06227603 94.54844816 3.95182876 94.55750541 5.8413868 94.56257629 C8.8398979 94.57087799 11.83810628 94.59139892 14.83653259 94.6151123 C21.2124284 94.66334203 27.58835491 94.69622857 33.96435547 94.72705078 C41.33146438 94.7628148 48.69842714 94.8049825 56.06539726 94.86299133 C59.00488681 94.88291362 61.94426167 94.89135242 64.88380432 94.89929199 C88.63775373 95.03445427 107.42603301 100.52004623 124.90185547 117.22705078 C125.84351563 118.0565625 125.84351563 118.0565625 126.80419922 118.90283203 C138.52992672 129.61817938 145.99485526 146.49833987 146.90185547 162.22705078 C147.61146112 182.84862101 144.0324296 202.64335029 129.65185547 218.35205078 C127.76326244 220.33917357 125.83649216 222.28491814 123.90185547 224.22705078 C123.11939453 225.04431641 122.33693359 225.86158203 121.53076172 226.70361328 C116.9383164 231.2108699 112.06544852 234.56055258 106.40185547 237.53955078 C105.82862549 237.85311523 105.25539551 238.16667969 104.66479492 238.48974609 C91.83679288 244.79832304 77.11583442 245.82483467 63.07910156 245.68115234 C61.4902601 245.68001971 59.90141656 245.68066581 58.31257629 245.68292236 C54.06358673 245.68405424 49.81506339 245.66079737 45.56618071 245.63262653 C41.10197634 245.60735351 36.63775731 245.60525073 32.17349243 245.6005249 C23.74853193 245.58817029 15.32378295 245.5554522 6.89891493 245.51512694 C-2.70467548 245.47017305 -12.30827683 245.44836325 -21.91194654 245.4283452 C-41.64082291 245.38671142 -61.36940993 245.31345497 -81.09814453 245.22705078 C-81.09814453 226.74705078 -81.09814453 208.26705078 -81.09814453 189.22705078 C-74.02699219 189.21303223 -74.02699219 189.21303223 -66.81298828 189.19873047 C-51.24253506 189.16497258 -35.67221393 189.10963112 -20.10186768 189.04314804 C-10.6610079 189.00336446 -1.2202314 188.9709685 8.22070312 188.95605469 C16.45088877 188.94303465 24.68089113 188.91606099 32.91097355 188.87243772 C37.26745479 188.8498308 41.62371003 188.83413964 45.98025513 188.83516693 C50.08436878 188.835914 54.187983 188.81794463 58.29196739 188.78588295 C59.79471241 188.777394 61.29751351 188.77562722 62.80027199 188.78124809 C70.71333249 188.80689377 77.13017506 188.73058093 83.90185547 184.22705078 C88.76186308 179.1112533 90.43504236 174.80209848 90.28076172 167.82861328 C89.43284082 162.00680591 86.30639891 158.32259467 81.77685547 154.78955078 C76.8999666 152.1390677 72.78948743 152.08172906 67.36987305 152.08520508 C66.49780716 152.08173065 65.62574127 152.07825623 64.72724915 152.07467651 C62.83006745 152.06731898 60.93287715 152.06197358 59.03568459 152.05838585 C56.01913688 152.05120466 53.00275037 152.03552055 49.98625183 152.01704407 C41.40776944 151.96468903 32.82937072 151.91672087 24.25073242 151.90112305 C19.00157555 151.89095416 13.75281831 151.86139641 8.50382042 151.81980324 C6.51586642 151.80760292 4.52785565 151.8023516 2.53986549 151.80460167 C-19.79910288 151.82364329 -38.99988789 147.69690202 -56.09814453 132.22705078 C-56.85611328 131.56189453 -57.61408203 130.89673828 -58.39501953 130.21142578 C-72.52251833 117.05823725 -80.36839042 99.07908285 -81.35205078 79.88330078 C-82.057244 59.02240332 -76.28310418 40.90516408 -62.09814453 25.22705078 C-61.43298828 24.46908203 -60.76783203 23.71111328 -60.08251953 22.93017578 C-43.87875762 5.52613521 -23.12439424 -0.11451994 0 0 Z " fill="#58585A" transform="translate(545.09814453125,364.77294921875)"/>
<path d="M0 0 C1.75815597 1.51139724 3.50842551 3.03202545 5.25 4.5625 C6.08015625 5.24828125 6.9103125 5.9340625 7.765625 6.640625 C30.58874564 26.0187463 45.40050776 56.80061326 48.109375 86.40576172 C48.40869731 90.99640973 48.46856273 95.58830201 48.5 100.1875 C48.5093457 101.14857666 48.51869141 102.10965332 48.52832031 103.09985352 C48.52413086 104.00791748 48.51994141 104.91598145 48.515625 105.8515625 C48.51336914 106.66318848 48.51111328 107.47481445 48.50878906 108.31103516 C48.22491938 110.7807014 47.48415664 112.42202873 46.25 114.5625 C45.9096875 113.44875 45.569375 112.335 45.21875 111.1875 C34.34065397 76.55870325 13.67448913 49.85391632 -18.5 32.875 C-35.54598489 24.65776513 -52.02911767 21.44787183 -70.875 21.3125 C-71.95974609 21.30299316 -73.04449219 21.29348633 -74.16210938 21.28369141 C-91.61236058 21.35512209 -108.23161264 25.63441222 -123.75 33.5625 C-124.68457031 34.02527344 -125.61914062 34.48804688 -126.58203125 34.96484375 C-133.89653623 38.74243502 -140.35063754 43.40090897 -146.75 48.5625 C-147.6678125 49.30113281 -148.585625 50.03976562 -149.53125 50.80078125 C-171.83852803 69.87093991 -184.0235451 97.17441376 -188.75 125.5625 C-189.41 125.5625 -190.07 125.5625 -190.75 125.5625 C-196.51587618 89.62873595 -190.68779809 55.69803151 -169.75 25.5625 C-150.18488272 -1.04335153 -121.66849424 -18.98850089 -88.94140625 -24.0234375 C-57.49949842 -27.58627069 -24.89846033 -20.00211039 0 0 Z " fill="#2A3A92" transform="translate(356.75,346.4375)"/>
<path d="M0 0 C-3.07907236 2.3802758 -6.28239548 4.47039605 -9.5625 6.5625 C-17.92556245 12.10379566 -24.95687746 18.89980192 -32 26 C-32.61101562 26.60199219 -33.22203125 27.20398438 -33.8515625 27.82421875 C-55.57643891 50.64969463 -65.0370766 83.13919064 -64.31640625 114.0625 C-62.78120014 146.28255791 -47.11220089 176.73800763 -23.50390625 198.27734375 C-21.06730057 200.297846 -18.58135281 202.1680722 -16 204 C-14.97648437 204.72703125 -13.95296875 205.4540625 -12.8984375 206.203125 C5.197124 218.62544047 26.77253131 226.60556553 48.80859375 227.31640625 C50.04931641 227.35830078 51.29003906 227.40019531 52.56835938 227.44335938 C53.84517578 227.48267578 55.12199219 227.52199219 56.4375 227.5625 C57.74138672 227.60568359 59.04527344 227.64886719 60.38867188 227.69335938 C63.59235316 227.79897524 66.79610611 227.90108101 70 228 C51.11556803 242.85225218 20.81662484 244.1450469 -1.89599609 241.68652344 C-24.61070141 238.48542422 -46.40637732 228.67351933 -64 214 C-64.98355469 213.19175781 -65.96710938 212.38351562 -66.98046875 211.55078125 C-88.80995283 192.65825234 -100.77811597 166.96234672 -106 139 C-106.19335938 138.06285156 -106.38671875 137.12570312 -106.5859375 136.16015625 C-110.65341903 105.11683027 -101.41573114 73.16583407 -82.640625 48.3203125 C-64.281961 24.84372498 -40.69553568 9.53148342 -12 2 C-10.741875 1.62875 -9.48375 1.2575 -8.1875 0.875 C-5.2684117 0.07368164 -3.00110726 -0.18188529 0 0 Z " fill="#F16527" transform="translate(201,309)"/>
<path d="M0 0 C1.07655853 -0.00200912 1.07655853 -0.00200912 2.17486572 -0.00405884 C12.60703815 0.00017417 22.45233427 0.4560596 32.5625 3.25 C33.42101562 3.45496094 34.27953125 3.65992188 35.1640625 3.87109375 C64.82115292 11.64762723 90.58680517 32.12309965 106.33349609 58.12548828 C113.1864925 69.97188772 117.90649546 81.83236051 120.5625 95.25 C120.82305176 96.32882446 120.82305176 96.32882446 121.08886719 97.42944336 C127.85376631 126.85554869 120.61029467 158.89287745 104.91918945 184.22045898 C101.49142307 189.54559444 97.70772423 194.47013873 93.5625 199.25 C92.87671875 200.06855469 92.1909375 200.88710938 91.484375 201.73046875 C82.34756046 212.32983094 71.71273451 220.3857131 59.5625 227.25 C58.655 227.77207031 57.7475 228.29414062 56.8125 228.83203125 C50.43090994 232.26757476 43.77861777 234.72240146 36.9375 237.0625 C35.63135742 237.51604858 35.63135742 237.51604858 34.29882812 237.97875977 C28.39290884 239.92604164 22.76766897 240.88679898 16.5625 241.25 C19.81696405 238.78301869 23.164232 236.515512 26.5625 234.25 C33.50165274 229.50727926 39.58511928 224.14516091 45.5625 218.25 C46.42746094 217.39792969 47.29242188 216.54585937 48.18359375 215.66796875 C70.45638514 192.49175681 80.22079329 160.71062674 79.67578125 129.1484375 C79.65596191 128.29475586 79.63614258 127.44107422 79.61572266 126.56152344 C79.57286594 124.70020516 79.55407721 122.83834096 79.54296875 120.9765625 C78.44770085 92.66185912 62.21687355 65.68322729 42.5625 46.25 C14.46187939 20.43996855 -18.59650209 13.41523419 -55.4375 14.25 C-43.31090551 1.20780693 -16.27472489 0.01782428 0 0 Z " fill="#C2B59B" transform="translate(279.4375,379.75)"/>
<path d="M0 0 C7.58391431 11.37587147 3.98290362 39.72581133 1.47827148 52.97338867 C-5.28677195 84.15222522 -23.86736596 112.04745763 -50.12109375 130.15234375 C-76.56294814 147.01428516 -107.80877169 154.72206596 -139.02734375 148.67578125 C-140.00832031 148.45277344 -140.98929687 148.22976563 -142 148 C-143.13566406 147.76667969 -144.27132812 147.53335938 -145.44140625 147.29296875 C-169.50004492 141.70564969 -193.90850896 126.71410992 -209 107 C-209.77859375 105.98421875 -210.5571875 104.9684375 -211.359375 103.921875 C-221.96830372 89.74482075 -228.84775516 74.92264518 -234 58 C-234.36351562 56.82695313 -234.72703125 55.65390625 -235.1015625 54.4453125 C-238.4575141 41.11559821 -237.25817958 26.64379803 -237 13 C-236.34 13 -235.68 13 -235 13 C-234.59910156 14.24652344 -234.19820313 15.49304688 -233.78515625 16.77734375 C-228.26613747 33.48963283 -221.36390611 48.4008793 -210 62 C-209.16855469 62.99515625 -208.33710938 63.9903125 -207.48046875 65.015625 C-188.01826628 87.57285578 -158.79550299 102.79044585 -129 105 C-116.31305123 105.65073821 -104.31199154 105.34182627 -92 102 C-90.74445313 101.67128906 -89.48890625 101.34257813 -88.1953125 101.00390625 C-56.49666677 92.19653272 -31.47281581 72.09033487 -14.86889648 43.89672852 C-7.37463089 30.53738549 -2.62486901 15.04029276 0 0 Z " fill="#BF1F2F" transform="translate(329,458)"/>
<path d="M0 0 C0.78246094 0.42410156 1.56492187 0.84820312 2.37109375 1.28515625 C12.71902877 7.54975772 20.39187277 17.59154104 23.63671875 29.296875 C25.60759748 43.96190814 24.36627422 57.10212761 15.375 69.3125 C7.95494008 77.8741076 -1.73537963 85.02955523 -13.2421875 86.23486328 C-26.96480319 87.20616041 -38.2618619 85.54539894 -49.19921875 76.578125 C-49.79347656 76.05734375 -50.38773438 75.5365625 -51 75 C-51.90685547 74.24976563 -51.90685547 74.24976563 -52.83203125 73.484375 C-60.91708412 66.22720336 -65.49810786 55.51013155 -66.21484375 44.78515625 C-66.59770421 30.68057679 -62.7736637 21.17935691 -54.75 9.8125 C-50.88680351 5.86150359 -46.70307125 2.88185226 -42 0 C-41.29617187 -0.43957031 -40.59234375 -0.87914062 -39.8671875 -1.33203125 C-28.67953806 -7.00605417 -10.81353897 -5.95393827 0 0 Z " fill="#F3892E" transform="translate(269,424)"/>
<path d="M0 0 C25.01371951 0 25.01371951 0 31.59765625 6.3515625 C37.70715767 13.53320483 37.23811785 21.66143568 37.3125 30.5625 C37.34150391 31.69236328 37.37050781 32.82222656 37.40039062 33.98632812 C37.46690642 42.87386117 36.30063378 50.9376815 30.5625 58 C20.81744332 65.60589789 12.7314039 64 0 64 C0 42.88 0 21.76 0 0 Z " fill="#424243" transform="translate(151,632)"/>
<path d="M0 0 C2.64 0 5.28 0 8 0 C8 20.79 8 41.58 8 63 C5.69 63 3.38 63 1 63 C0.67 61.68 0.34 60.36 0 59 C-1.3921875 59.9590625 -1.3921875 59.9590625 -2.8125 60.9375 C-7.43522836 63.92867717 -11.55835433 64.83419167 -17 64 C-21.85539385 62.12105916 -25.03660725 59.57460332 -27.4375 54.9375 C-31.17684546 46.46947553 -31.54064512 36.22593797 -28.4375 27.5 C-26.27355184 22.84213994 -23.37802334 19.67656427 -19 17 C-16.5625 16.125 -16.5625 16.125 -14 16 C-13.05447266 15.92652344 -13.05447266 15.92652344 -12.08984375 15.8515625 C-6.93572617 15.60108202 -5.92060114 16.04763932 -1 19 C-0.67 12.73 -0.34 6.46 0 0 Z " fill="#464647" transform="translate(1159,632)"/>
<path d="M0 0 C22.82352941 0 22.82352941 0 29.375 4.125 C35.06918006 10.36148293 35.56520363 16.70278529 35.34765625 24.875 C34.69494677 30.74205149 32.49730435 34.8771654 28.1875 38.875 C21.29232193 43.47178538 16.54806303 43 8 43 C8 49.93 8 56.86 8 64 C5.36 64 2.72 64 0 64 C0 42.88 0 21.76 0 0 Z " fill="#424243" transform="translate(452,632)"/>
<path d="M0 0 C3.125 1.875 3.125 1.875 5 4 C5 4.66 5 5.32 5 6 C5.61488281 5.65066406 6.22976563 5.30132813 6.86328125 4.94140625 C7.67152344 4.48636719 8.47976563 4.03132812 9.3125 3.5625 C10.51326172 2.88380859 10.51326172 2.88380859 11.73828125 2.19140625 C15.95858395 -0.03172384 19.26858788 -0.3207737 24 0 C27.98066095 1.57724302 29.60667274 2.41000911 32 6 C32.24050903 7.95524597 32.24050903 7.95524597 32.22705078 10.19604492 C32.22689972 11.03668991 32.22674866 11.8773349 32.22659302 12.74345398 C32.21627045 13.64666885 32.20594788 14.54988373 32.1953125 15.48046875 C32.1924826 16.40845779 32.18965271 17.33644684 32.18673706 18.29255676 C32.17553836 21.25766879 32.15043435 24.22247921 32.125 27.1875 C32.1149698 29.19726126 32.10584402 31.20702726 32.09765625 33.21679688 C32.07560004 38.14464753 32.04107229 43.07227262 32 48 C29.69 48 27.38 48 25 48 C24.98541748 46.85934082 24.97083496 45.71868164 24.95581055 44.54345703 C24.89793273 40.32015283 24.82070023 36.09738775 24.73754883 31.87451172 C24.70424974 30.0451735 24.67623343 28.2157313 24.65356445 26.38623047 C24.62010923 23.75963944 24.56780037 21.13400559 24.51171875 18.5078125 C24.50532883 17.68693146 24.4989389 16.86605042 24.49235535 16.02029419 C24.46057783 13.47385626 24.46057783 13.47385626 24 10 C20.22786948 7.48524632 18.47964158 7.55203584 14 8 C10.15947178 9.55372443 10.15947178 9.55372443 7 12 C6.27106979 15.0907765 6.0401612 17.17287448 6.09765625 20.265625 C6.08536484 21.05902283 6.07307343 21.85242065 6.06040955 22.66986084 C6.02868082 25.19751521 6.04495289 27.72225454 6.0625 30.25 C6.0493908 31.96617295 6.03315083 33.68232503 6.01367188 35.3984375 C5.97281894 39.59958028 5.97500012 43.79875378 6 48 C3.69 48 1.38 48 -1 48 C-1.33 34.8 -1.66 21.6 -2 8 C-10.89057797 7.40912105 -10.89057797 7.40912105 -18 11 C-18.33 23.21 -18.66 35.42 -19 48 C-21.64 48 -24.28 48 -27 48 C-27 32.49 -27 16.98 -27 1 C-25.02 1 -23.04 1 -21 1 C-20.67 2.65 -20.34 4.3 -20 6 C-19.39414062 5.566875 -18.78828125 5.13375 -18.1640625 4.6875 C-12.14731154 0.68867475 -7.27321967 -1.54475462 0 0 Z " fill="#444445" transform="translate(938,648)"/>
<path d="M0 0 C3.9815448 2.42354901 5.41657547 4.37472642 6.875 8.75 C6.96018867 11.55426452 6.9908852 14.3329635 6.97265625 17.13671875 C6.9712413 17.95372757 6.96982635 18.77073639 6.96836853 19.61250305 C6.96277294 22.22087268 6.95022129 24.82915634 6.9375 27.4375 C6.93248443 29.20637897 6.92792162 30.97525928 6.92382812 32.74414062 C6.91280496 37.07946019 6.89554338 41.41471552 6.875 45.75 C3.5 45.9375 3.5 45.9375 -0.125 45.75 C-0.785 44.76 -1.445 43.77 -2.125 42.75 C-3.795625 43.7709375 -3.795625 43.7709375 -5.5 44.8125 C-10.49647565 47.30630046 -14.78739057 47.20153578 -20.125 45.75 C-23.47443053 43.65660592 -24.93602821 42.03345769 -27.125 38.75 C-27.86018074 33.91477283 -28.23721538 28.91491421 -25.95703125 24.4765625 C-23.0854378 20.97750005 -20.50920661 19.05540983 -16.125 17.75 C-13.47892791 17.61289782 -10.95030987 17.55937028 -8.3125 17.625 C-7.27319336 17.63853516 -7.27319336 17.63853516 -6.21289062 17.65234375 C-4.51677605 17.67573843 -2.82084129 17.71160359 -1.125 17.75 C-1.23909593 16.29077307 -1.36665544 14.83259402 -1.5 13.375 C-1.56960938 12.56289063 -1.63921875 11.75078125 -1.7109375 10.9140625 C-1.95392588 8.54665809 -1.95392588 8.54665809 -4.125 6.75 C-7.0487186 6.46726743 -7.0487186 6.46726743 -10.375 6.5625 C-11.49390625 6.56894531 -12.6128125 6.57539062 -13.765625 6.58203125 C-16.96103635 6.74180182 -19.98438455 7.15518647 -23.125 7.75 C-23.125 5.44 -23.125 3.13 -23.125 0.75 C-15.92573587 -1.96731624 -7.33654373 -2.86265992 0 0 Z " fill="#454546" transform="translate(661.125,649.25)"/>
<path d="M0 0 C3.9815448 2.42354901 5.41657547 4.37472642 6.875 8.75 C6.96018867 11.55426452 6.9908852 14.3329635 6.97265625 17.13671875 C6.9712413 17.95372757 6.96982635 18.77073639 6.96836853 19.61250305 C6.96277294 22.22087268 6.95022129 24.82915634 6.9375 27.4375 C6.93248443 29.20637897 6.92792162 30.97525928 6.92382812 32.74414062 C6.91280496 37.07946019 6.89554338 41.41471552 6.875 45.75 C3.5 45.9375 3.5 45.9375 -0.125 45.75 C-0.785 44.76 -1.445 43.77 -2.125 42.75 C-3.795625 43.7709375 -3.795625 43.7709375 -5.5 44.8125 C-10.49647565 47.30630046 -14.78739057 47.20153578 -20.125 45.75 C-23.47443053 43.65660592 -24.93602821 42.03345769 -27.125 38.75 C-27.86018074 33.91477283 -28.23721538 28.91491421 -25.95703125 24.4765625 C-23.0854378 20.97750005 -20.50920661 19.05540983 -16.125 17.75 C-13.47892791 17.61289782 -10.95030987 17.55937028 -8.3125 17.625 C-7.27319336 17.63853516 -7.27319336 17.63853516 -6.21289062 17.65234375 C-4.51677605 17.67573843 -2.82084129 17.71160359 -1.125 17.75 C-1.23909593 16.29077307 -1.36665544 14.83259402 -1.5 13.375 C-1.56960938 12.56289063 -1.63921875 11.75078125 -1.7109375 10.9140625 C-1.95392588 8.54665809 -1.95392588 8.54665809 -4.125 6.75 C-7.0487186 6.46726743 -7.0487186 6.46726743 -10.375 6.5625 C-11.49390625 6.56894531 -12.6128125 6.57539062 -13.765625 6.58203125 C-16.96103635 6.74180182 -19.98438455 7.15518647 -23.125 7.75 C-23.125 5.44 -23.125 3.13 -23.125 0.75 C-15.92573587 -1.96731624 -7.33654373 -2.86265992 0 0 Z " fill="#454546" transform="translate(335.125,649.25)"/>
<path d="M0 0 C3.9815448 2.42354901 5.41657547 4.37472642 6.875 8.75 C6.96018867 11.55426452 6.9908852 14.3329635 6.97265625 17.13671875 C6.9712413 17.95372757 6.96982635 18.77073639 6.96836853 19.61250305 C6.96277294 22.22087268 6.95022129 24.82915634 6.9375 27.4375 C6.93248443 29.20637897 6.92792162 30.97525928 6.92382812 32.74414062 C6.91280496 37.07946019 6.89554338 41.41471552 6.875 45.75 C3.5 45.9375 3.5 45.9375 -0.125 45.75 C-0.785 44.76 -1.445 43.77 -2.125 42.75 C-3.795625 43.7709375 -3.795625 43.7709375 -5.5 44.8125 C-10.49647565 47.30630046 -14.78739057 47.20153578 -20.125 45.75 C-23.47443053 43.65660592 -24.93602821 42.03345769 -27.125 38.75 C-27.86018074 33.91477283 -28.23721538 28.91491421 -25.95703125 24.4765625 C-23.0854378 20.97750005 -20.50920661 19.05540983 -16.125 17.75 C-13.47892791 17.61289782 -10.95030987 17.55937028 -8.3125 17.625 C-7.27319336 17.63853516 -7.27319336 17.63853516 -6.21289062 17.65234375 C-4.51677605 17.67573843 -2.82084129 17.71160359 -1.125 17.75 C-1.23909593 16.29077307 -1.36665544 14.83259402 -1.5 13.375 C-1.56960937 12.56289063 -1.63921875 11.75078125 -1.7109375 10.9140625 C-1.95392588 8.54665809 -1.95392588 8.54665809 -4.125 6.75 C-7.0487186 6.46726743 -7.0487186 6.46726743 -10.375 6.5625 C-11.49390625 6.56894531 -12.6128125 6.57539062 -13.765625 6.58203125 C-16.96103635 6.74180182 -19.98438455 7.15518647 -23.125 7.75 C-23.125 5.44 -23.125 3.13 -23.125 0.75 C-15.92573587 -1.96731624 -7.33654373 -2.86265992 0 0 Z " fill="#454546" transform="translate(237.125,649.25)"/>
<path d="M0 0 C5.37349657 0.37058597 9.15057819 1.73572895 12.9375 5.625 C17.50333609 12.7274117 16.78002549 18.95613608 16.625 27.25 C7.715 27.25 -1.195 27.25 -10.375 27.25 C-8.5275843 37.00415792 -8.5275843 37.00415792 -3.375 40.25 C-0.5323794 40.64957712 -0.5323794 40.64957712 2.5 40.5 C3.55445313 40.47421875 4.60890625 40.4484375 5.6953125 40.421875 C8.73001996 40.24383883 11.65529035 39.90993548 14.625 39.25 C14.625 41.56 14.625 43.87 14.625 46.25 C6.90459847 49.58855201 -1.72846947 49.21250106 -9.50390625 46.21875 C-14.01638275 43.88243649 -16.22252125 39.56515913 -17.83203125 34.87890625 C-19.77702989 25.46175455 -19.65606768 14.5372139 -14.375 6.25 C-11.96767292 3.41397083 -9.51385444 1.62961815 -5.9375 0.4375 C-3.95825911 0.2926775 -1.97910997 0.14660074 0 0 Z " fill="#454546" transform="translate(1090.375,647.75)"/>
<path d="M0 0 C5.37349657 0.37058597 9.15057819 1.73572895 12.9375 5.625 C17.50333609 12.7274117 16.78002549 18.95613608 16.625 27.25 C7.715 27.25 -1.195 27.25 -10.375 27.25 C-8.5275843 37.00415792 -8.5275843 37.00415792 -3.375 40.25 C-0.5323794 40.64957712 -0.5323794 40.64957712 2.5 40.5 C3.55445313 40.47421875 4.60890625 40.4484375 5.6953125 40.421875 C8.73001996 40.24383883 11.65529035 39.90993548 14.625 39.25 C14.625 41.56 14.625 43.87 14.625 46.25 C6.90459847 49.58855201 -1.72846947 49.21250106 -9.50390625 46.21875 C-14.01638275 43.88243649 -16.22252125 39.56515913 -17.83203125 34.87890625 C-19.77702989 25.46175455 -19.65606768 14.5372139 -14.375 6.25 C-11.96767292 3.41397083 -9.51385444 1.62961815 -5.9375 0.4375 C-3.95825911 0.2926775 -1.97910997 0.14660074 0 0 Z " fill="#454546" transform="translate(751.375,647.75)"/>
<path d="M0 0 C13.33333333 0 13.33333333 0 17.6953125 4.19921875 C22.10093323 10.28003059 21.36735364 17.13638776 21.375 24.3125 C21.39949219 25.51068359 21.42398438 26.70886719 21.44921875 27.94335938 C21.47296031 35.12518047 20.93005574 39.92889012 17 46 C11.39398058 51.46928724 8.84029916 50 0 50 C0 33.5 0 17 0 0 Z " fill="#FDFDFD" transform="translate(159,639)"/>
<path d="M0 0 C9.9 0 19.8 0 30 0 C30 2.31 30 4.62 30 7 C22.74 7 15.48 7 8 7 C8 13.27 8 19.54 8 26 C14.6 26 21.2 26 28 26 C28 28.31 28 30.62 28 33 C21.4 33 14.8 33 8 33 C8 40.92 8 48.84 8 57 C15.26 57 22.52 57 30 57 C30 59.31 30 61.62 30 64 C20.1 64 10.2 64 0 64 C0 42.88 0 21.76 0 0 Z " fill="#404041" transform="translate(98,632)"/>
<path d="M0 0 C2.97 0 5.94 0 9 0 C10.10706864 3.91585215 11.21010289 7.83283039 12.3125 11.75 C12.62123047 12.84183594 12.92996094 13.93367187 13.24804688 15.05859375 C14.17847265 18.36895073 15.09436855 21.68277621 16 25 C16.29696777 26.08732422 16.59393555 27.17464844 16.89990234 28.29492188 C17.31103271 29.85823242 17.31103271 29.85823242 17.73046875 31.453125 C17.97563232 32.37770508 18.2207959 33.30228516 18.47338867 34.25488281 C19.04368402 37.22771584 19.09030845 39.98008538 19 43 C19.66 43 20.32 43 21 43 C20.94328125 42.07445312 20.8865625 41.14890625 20.828125 40.1953125 C20.83345337 34.89091995 22.35753927 29.95702497 23.75 24.875 C24.02150879 23.85978271 24.29301758 22.84456543 24.57275391 21.79858398 C26.5476333 14.47891715 28.64795863 7.20831501 31 0 C33.97 0 36.94 0 40 0 C39.38607386 5.87912322 37.78724419 11.08516459 35.83984375 16.65234375 C35.53051407 17.55247696 35.22118439 18.45261017 34.90248108 19.38002014 C33.92001689 22.2345756 32.92890446 25.08603881 31.9375 27.9375 C31.26700335 29.88066114 30.59707539 31.82401861 29.92773438 33.76757812 C28.29172935 38.51401628 26.64796524 43.25770186 25 48 C21.7 48 18.4 48 15 48 C11.52745871 39.13368324 8.37168805 30.27043203 5.76611328 21.10913086 C4.24977505 15.78214183 2.54033242 10.5452912 0.69921875 5.3203125 C0 3 0 3 0 0 Z " fill="#484849" transform="translate(579,648)"/>
<path d="M0 0 C0.91394531 0.48984375 1.82789063 0.9796875 2.76953125 1.484375 C2.94364228 5.9005449 3.05032887 10.31583503 3.14453125 14.734375 C3.21994141 16.61576172 3.21994141 16.61576172 3.296875 18.53515625 C3.35162293 21.94777753 3.33164161 25.1171758 2.76953125 28.484375 C-0.06698216 31.4099088 -1.7336687 32.12799404 -5.609375 33.05078125 C-9.73356393 33.04340345 -11.70191016 32.85549061 -15.16796875 30.421875 C-19.82876397 23.78377272 -19.95161362 16.3514099 -19.23046875 8.484375 C-17.86440449 4.77648629 -16.34954405 1.95364294 -13.23046875 -0.515625 C-8.40992982 -2.12247131 -4.63241823 -2.17337155 0 0 Z " fill="#F9F9F9" transform="translate(1156.23046875,656.515625)"/>
<path d="M0 0 C0 4.62 0 9.24 0 14 C3.3 14 6.6 14 10 14 C10 15.98 10 17.96 10 20 C6.7 20 3.4 20 0 20 C0.33 31.22 0.66 42.44 1 54 C4.63 54 8.26 54 12 54 C12 55.98 12 57.96 12 60 C7.03312696 61.98674922 3.2749095 62.50237233 -2 62 C-5.44312714 59.8755173 -6.71617547 58.85147359 -8 55 C-8.08494728 52.34105893 -8.11594796 49.70914623 -8.09765625 47.05078125 C-8.0962413 46.27816452 -8.09482635 45.50554779 -8.09336853 44.70951843 C-8.08777466 42.24380611 -8.07522333 39.77818485 -8.0625 37.3125 C-8.05748421 35.63997527 -8.05292144 33.96744912 -8.04882812 32.29492188 C-8.03780724 28.19657954 -8.02054684 24.09830521 -8 20 C-10.64 20 -13.28 20 -16 20 C-16 18.02 -16 16.04 -16 14 C-13.36 14 -10.72 14 -8 14 C-8 10.37 -8 6.74 -8 3 C-2.25 0 -2.25 0 0 0 Z " fill="#424243" transform="translate(1044,634)"/>
<path d="M0 0 C0 4.62 0 9.24 0 14 C3.3 14 6.6 14 10 14 C10 15.98 10 17.96 10 20 C6.7 20 3.4 20 0 20 C0.33 31.22 0.66 42.44 1 54 C4.63 54 8.26 54 12 54 C12 55.98 12 57.96 12 60 C7.03312696 61.98674922 3.2749095 62.50237233 -2 62 C-5.44312714 59.8755173 -6.71617547 58.85147359 -8 55 C-8.08494728 52.34105893 -8.11594796 49.70914623 -8.09765625 47.05078125 C-8.0962413 46.27816452 -8.09482635 45.50554779 -8.09336853 44.70951843 C-8.08777466 42.24380611 -8.07522333 39.77818485 -8.0625 37.3125 C-8.05748421 35.63997527 -8.05292144 33.96744912 -8.04882812 32.29492188 C-8.03780724 28.19657954 -8.02054684 24.09830521 -8 20 C-10.64 20 -13.28 20 -16 20 C-16 18.02 -16 16.04 -16 14 C-13.36 14 -10.72 14 -8 14 C-8 10.37 -8 6.74 -8 3 C-2.25 0 -2.25 0 0 0 Z " fill="#424243" transform="translate(705,634)"/>
<path d="M0 0 C0 4.62 0 9.24 0 14 C3.3 14 6.6 14 10 14 C10 15.98 10 17.96 10 20 C6.7 20 3.4 20 0 20 C0.33 31.22 0.66 42.44 1 54 C4.63 54 8.26 54 12 54 C12 55.98 12 57.96 12 60 C7.03312696 61.98674922 3.2749095 62.50237233 -2 62 C-5.44312714 59.8755173 -6.71617547 58.85147359 -8 55 C-8.08494728 52.34105893 -8.11594796 49.70914623 -8.09765625 47.05078125 C-8.0962413 46.27816452 -8.09482635 45.50554779 -8.09336853 44.70951843 C-8.08777466 42.24380611 -8.07522333 39.77818485 -8.0625 37.3125 C-8.05748421 35.63997527 -8.05292144 33.96744912 -8.04882812 32.29492188 C-8.03780724 28.19657954 -8.02054684 24.09830521 -8 20 C-10.64 20 -13.28 20 -16 20 C-16 18.02 -16 16.04 -16 14 C-13.36 14 -10.72 14 -8 14 C-8 10.37 -8 6.74 -8 3 C-2.25 0 -2.25 0 0 0 Z " fill="#424243" transform="translate(281,634)"/>
<path d="M0 0 C2.64 0 5.28 0 8 0 C8 18.81 8 37.62 8 57 C13.94 57 19.88 57 26 57 C26 59.31 26 61.62 26 64 C17.42 64 8.84 64 0 64 C0 42.88 0 21.76 0 0 Z " fill="#404041" transform="translate(829,632)"/>
<path d="M0 0 C0 2.31 0 4.62 0 7 C-0.53496094 6.83757813 -1.06992187 6.67515625 -1.62109375 6.5078125 C-4.48334954 5.89682194 -7.13671735 5.86774899 -10.0625 5.875 C-11.62677734 5.87113281 -11.62677734 5.87113281 -13.22265625 5.8671875 C-16.08680628 5.87862843 -16.08680628 5.87862843 -19 7 C-19.08184018 10.36472975 -19.08184018 10.36472975 -18 14 C-15.48044898 15.7566954 -13.44898174 16.92121095 -10.6875 18.125 C-5.70451636 20.39128561 -1.93522861 22.1227767 1 27 C1.8954305 31.51240569 1.54682652 35.71495769 -0.25 39.9375 C-3.46543236 43.72711671 -6.02510181 45.43467066 -11 46 C-16.55236771 46.26866295 -20.7371661 45.75427797 -26 44 C-26 41.69 -26 39.38 -26 37 C-25.38125 37.165 -24.7625 37.33 -24.125 37.5 C-18.21513159 38.44557894 -12.3107178 39.10302911 -7 36 C-7 33.36 -7 30.72 -7 28 C-8.155 27.4225 -9.31 26.845 -10.5 26.25 C-11.58861328 25.69892578 -11.58861328 25.69892578 -12.69921875 25.13671875 C-14.18756222 24.40139116 -15.68991825 23.69350534 -17.20703125 23.01953125 C-20.37578306 21.57918952 -22.63125098 20.40331924 -25 17.8125 C-26.43269843 13.78303567 -26.80223068 10.21913915 -26 6 C-20.75021253 -3.83293527 -9.31924126 -4.02994217 0 0 Z " fill="#464647" transform="translate(391,650)"/>
<path d="M0 0 C12.68965517 0 12.68965517 0 16 3 C19.89742762 8.47926867 19.7504664 13.4873318 19 20 C18.00079675 23.58833369 16.49684775 26.09734561 13.19921875 28.0859375 C8.43712459 30.10173658 5.51715277 30 0 30 C0 20.1 0 10.2 0 0 Z " fill="#FBFBFB" transform="translate(460,639)"/>
<path d="M0 0 C1 1 1 1 1.0625 4.5625 C1.041875 5.696875 1.02125 6.83125 1 8 C0.21753906 8.13277344 -0.56492187 8.26554688 -1.37109375 8.40234375 C-2.38300781 8.57894531 -3.39492188 8.75554688 -4.4375 8.9375 C-5.44683594 9.11152344 -6.45617187 9.28554688 -7.49609375 9.46484375 C-9.9287438 9.74751097 -9.9287438 9.74751097 -11 11 C-11.16010481 13.73701178 -11.25946828 16.4516759 -11.31640625 19.19140625 C-11.33718735 20.01124496 -11.35796844 20.83108368 -11.37937927 21.67576599 C-11.44496494 24.30458901 -11.50380126 26.93351504 -11.5625 29.5625 C-11.60567667 31.34050561 -11.64929067 33.11850065 -11.69335938 34.89648438 C-11.80065543 39.26421634 -11.90189704 43.63205227 -12 48 C-14.64 48 -17.28 48 -20 48 C-20 32.49 -20 16.98 -20 1 C-18.02 1 -16.04 1 -14 1 C-13.34 2.32 -12.68 3.64 -12 5 C-11.401875 4.360625 -10.80375 3.72125 -10.1875 3.0625 C-6.95449728 0.01424029 -4.29703447 -0.22615971 0 0 Z " fill="#414142" transform="translate(529,648)"/>
<path d="M0 0 C2.64 0 5.28 0 8 0 C8 15.51 8 31.02 8 47 C5.36 47 2.72 47 0 47 C0 31.49 0 15.98 0 0 Z " fill="#404041" transform="translate(999,649)"/>
<path d="M0 0 C2.64 0 5.28 0 8 0 C8 15.51 8 31.02 8 47 C5.36 47 2.72 47 0 47 C0 31.49 0 15.98 0 0 Z " fill="#404041" transform="translate(876,649)"/>
<path d="M0 0 C2.64 0 5.28 0 8 0 C8 15.51 8 31.02 8 47 C5.36 47 2.72 47 0 47 C0 31.49 0 15.98 0 0 Z " fill="#404041" transform="translate(550,649)"/>
<path d="M0 0 C1.09570312 0.00902344 2.19140625 0.01804687 3.3203125 0.02734375 C4.16335938 0.03894531 5.00640625 0.05054688 5.875 0.0625 C6.21532416 4.77661979 6.38577489 9.35685051 5.875 14.0625 C2.82608014 17.56875784 0.22806286 18.24383635 -4.25 18.5625 C-8.125 18.0625 -8.125 18.0625 -10.625 16.625 C-12.84649116 12.8299526 -12.92945965 9.35295146 -12.125 5.0625 C-8.56138076 0.31100768 -5.71726626 -0.06082198 0 0 Z " fill="#F8F8F8" transform="translate(654.125,671.9375)"/>
<path d="M0 0 C1.09570312 0.00902344 2.19140625 0.01804687 3.3203125 0.02734375 C4.16335938 0.03894531 5.00640625 0.05054688 5.875 0.0625 C6.21532416 4.77661979 6.38577489 9.35685051 5.875 14.0625 C2.82608014 17.56875784 0.22806286 18.24383635 -4.25 18.5625 C-8.125 18.0625 -8.125 18.0625 -10.625 16.625 C-12.84649116 12.8299526 -12.92945965 9.35295146 -12.125 5.0625 C-8.56138076 0.31100768 -5.71726626 -0.06082198 0 0 Z " fill="#F8F8F8" transform="translate(328.125,671.9375)"/>
<path d="M0 0 C1.09570312 0.00902344 2.19140625 0.01804687 3.3203125 0.02734375 C4.16335937 0.03894531 5.00640625 0.05054688 5.875 0.0625 C6.21532416 4.77661979 6.38577489 9.35685051 5.875 14.0625 C2.82608014 17.56875784 0.22806286 18.24383635 -4.25 18.5625 C-8.125 18.0625 -8.125 18.0625 -10.625 16.625 C-12.84649116 12.8299526 -12.92945965 9.35295146 -12.125 5.0625 C-8.56138076 0.31100768 -5.71726626 -0.06082198 0 0 Z " fill="#F8F8F8" transform="translate(230.125,671.9375)"/>
<path d="M0 0 C5.05514706 0.73529412 5.05514706 0.73529412 7.4375 2.5 C9.4375 6.5 9.4375 6.5 9.4375 15.5 C3.4975 15.5 -2.4425 15.5 -8.5625 15.5 C-8.5625 6.5 -8.5625 6.5 -6.5 2.9375 C-3.5625 0.5 -3.5625 0.5 0 0 Z " fill="#FCFCFC" transform="translate(1089.5625,653.5)"/>
<path d="M0 0 C5.05514706 0.73529412 5.05514706 0.73529412 7.4375 2.5 C9.4375 6.5 9.4375 6.5 9.4375 15.5 C3.4975 15.5 -2.4425 15.5 -8.5625 15.5 C-8.5625 6.5 -8.5625 6.5 -6.5 2.9375 C-3.5625 0.5 -3.5625 0.5 0 0 Z " fill="#FCFCFC" transform="translate(750.5625,653.5)"/>
<path d="M0 0 C3.625 0.375 3.625 0.375 7 1 C8.125 7.75 8.125 7.75 7 10 C4.125 10.8125 4.125 10.8125 1 11 C-0.875 9.9375 -0.875 9.9375 -2 8 C-2.3125 4.9375 -2.3125 4.9375 -2 2 C-1.34 1.34 -0.68 0.68 0 0 Z " fill="#474748" transform="translate(1000,631)"/>
<path d="M0 0 C3.625 0.375 3.625 0.375 7 1 C8.125 7.75 8.125 7.75 7 10 C4.125 10.8125 4.125 10.8125 1 11 C-0.875 9.9375 -0.875 9.9375 -2 8 C-2.3125 4.9375 -2.3125 4.9375 -2 2 C-1.34 1.34 -0.68 0.68 0 0 Z " fill="#474748" transform="translate(877,631)"/>
<path d="M0 0 C3.625 0.375 3.625 0.375 7 1 C8.125 7.75 8.125 7.75 7 10 C4.125 10.8125 4.125 10.8125 1 11 C-0.875 9.9375 -0.875 9.9375 -2 8 C-2.3125 4.9375 -2.3125 4.9375 -2 2 C-1.34 1.34 -0.68 0.68 0 0 Z " fill="#474748" transform="translate(551,631)"/>
</svg>